<svg width="1328" height="187" xmlns="http://www.w3.org/2000/svg"><g fill="none" fill-rule="evenodd"><g stroke="#F8426A" stroke-linecap="round" stroke-linejoin="round" stroke-width="1.5"><path d="M80.75 171.25L95 157.721l14.25 13.529"/><path d="M80.75 182.829L95 169.3l14.25 13.529"/><path d="M89.266 186.279l5.734-5.4 5.723 5.4"/></g><g stroke="#F8426A" stroke-linecap="round" stroke-linejoin="round" stroke-width="1.5"><path d="M744.75 171.25L759 157.721l14.25 13.529"/><path d="M744.75 182.829L759 169.3l14.25 13.529"/><path d="M753.266 186.279l5.734-5.4 5.723 5.4"/></g><g stroke="#F8426A" stroke-linecap="round" stroke-linejoin="round" stroke-width="1.5"><path d="M412.75 171.25L427 157.721l14.25 13.529"/><path d="M412.75 182.829L427 169.3l14.25 13.529"/><path d="M421.266 186.279l5.734-5.4 5.723 5.4"/></g><g stroke="#F8426A" stroke-linecap="round" stroke-linejoin="round" stroke-width="1.5"><path d="M1076.75 171.25l14.25-13.529 14.25 13.529"/><path d="M1076.75 182.829L1091 169.3l14.25 13.529"/><path d="M1085.266 186.279l5.734-5.4 5.723 5.4"/></g><g opacity=".3" stroke="#F8426A" stroke-linecap="round" stroke-linejoin="round" stroke-width="1.5"><path d="M1242.75 15.25L1257 1.721l14.25 13.529"/><path d="M1242.75 26.829L1257 13.3l14.25 13.529"/><path d="M1251.266 30.279l5.734-5.4 5.723 5.4"/></g><g opacity=".3" stroke="#F8426A" stroke-linecap="round" stroke-linejoin="round" stroke-width="1.5"><path d="M578.75 15.25L593 1.721l14.25 13.529"/><path d="M578.75 26.829L593 13.3l14.25 13.529"/><path d="M587.266 30.279l5.734-5.4 5.723 5.4"/></g><g opacity=".3" stroke="#F8426A" stroke-linecap="round" stroke-linejoin="round" stroke-width="1.5"><path d="M246.75 15.25L261 1.721l14.25 13.529"/><path d="M246.75 26.829L261 13.3l14.25 13.529"/><path d="M255.266 30.279l5.734-5.4 5.723 5.4"/></g><g opacity=".3" stroke="#F8426A" stroke-linecap="round" stroke-linejoin="round" stroke-width="1.5"><path d="M910.75 15.25L925 1.721l14.25 13.529"/><path d="M910.75 26.829L925 13.3l14.25 13.529"/><path d="M919.266 30.279l5.734-5.4 5.723 5.4"/></g><g transform="translate(1242 157)" fill="#F8426A"><rect transform="rotate(90 22.125 9)" x="13.125" y="8.25" width="18" height="1.5" rx=".585"/><rect transform="rotate(90 7.875 9)" x="-1.125" y="8.25" width="18" height="1.5" rx=".585"/><rect transform="rotate(90 29.25 4.5)" x="24.75" y="3.75" width="9" height="1.5" rx=".585"/><rect transform="rotate(90 .75 4.5)" x="-3.75" y="3.75" width="9" height="1.5" rx=".585"/><rect transform="rotate(90 15 15)" y="14.25" width="30" height="1.5" rx=".585"/></g><g transform="translate(578 157)" fill="#F8426A"><rect transform="rotate(90 22.125 9)" x="13.125" y="8.25" width="18" height="1.5" rx=".585"/><rect transform="rotate(90 7.875 9)" x="-1.125" y="8.25" width="18" height="1.5" rx=".585"/><rect transform="rotate(90 29.25 4.5)" x="24.75" y="3.75" width="9" height="1.5" rx=".585"/><rect transform="rotate(90 .75 4.5)" x="-3.75" y="3.75" width="9" height="1.5" rx=".585"/><rect transform="rotate(90 15 15)" y="14.25" width="30" height="1.5" rx=".585"/></g><g transform="translate(246 157)" fill="#F8426A"><rect transform="rotate(90 22.125 9)" x="13.125" y="8.25" width="18" height="1.5" rx=".585"/><rect transform="rotate(90 7.875 9)" x="-1.125" y="8.25" width="18" height="1.5" rx=".585"/><rect transform="rotate(90 29.25 4.5)" x="24.75" y="3.75" width="9" height="1.5" rx=".585"/><rect transform="rotate(90 .75 4.5)" x="-3.75" y="3.75" width="9" height="1.5" rx=".585"/><rect transform="rotate(90 15 15)" y="14.25" width="30" height="1.5" rx=".585"/></g><g transform="translate(910 157)" fill="#F8426A"><rect transform="rotate(90 22.125 9)" x="13.125" y="8.25" width="18" height="1.5" rx=".585"/><rect transform="rotate(90 7.875 9)" x="-1.125" y="8.25" width="18" height="1.5" rx=".585"/><rect transform="rotate(90 29.25 4.5)" x="24.75" y="3.75" width="9" height="1.5" rx=".585"/><rect transform="rotate(90 .75 4.5)" x="-3.75" y="3.75" width="9" height="1.5" rx=".585"/><rect transform="rotate(90 15 15)" y="14.25" width="30" height="1.5" rx=".585"/></g><g transform="translate(80 1)" fill="#F8426A" opacity=".3"><rect transform="rotate(90 22.125 9)" x="13.125" y="8.25" width="18" height="1.5" rx=".585"/><rect transform="rotate(90 7.875 9)" x="-1.125" y="8.25" width="18" height="1.5" rx=".585"/><rect transform="rotate(90 29.25 4.5)" x="24.75" y="3.75" width="9" height="1.5" rx=".585"/><rect transform="rotate(90 .75 4.5)" x="-3.75" y="3.75" width="9" height="1.5" rx=".585"/><rect transform="rotate(90 15 15)" y="14.25" width="30" height="1.5" rx=".585"/></g><g transform="translate(744 1)" fill="#F8426A" opacity=".3"><rect transform="rotate(90 22.125 9)" x="13.125" y="8.25" width="18" height="1.5" rx=".585"/><rect transform="rotate(90 7.875 9)" x="-1.125" y="8.25" width="18" height="1.5" rx=".585"/><rect transform="rotate(90 29.25 4.5)" x="24.75" y="3.75" width="9" height="1.5" rx=".585"/><rect transform="rotate(90 .75 4.5)" x="-3.75" y="3.75" width="9" height="1.5" rx=".585"/><rect transform="rotate(90 15 15)" y="14.25" width="30" height="1.5" rx=".585"/></g><g transform="translate(412 1)" fill="#F8426A" opacity=".3"><rect transform="rotate(90 22.125 9)" x="13.125" y="8.25" width="18" height="1.5" rx=".585"/><rect transform="rotate(90 7.875 9)" x="-1.125" y="8.25" width="18" height="1.5" rx=".585"/><rect transform="rotate(90 29.25 4.5)" x="24.75" y="3.75" width="9" height="1.5" rx=".585"/><rect transform="rotate(90 .75 4.5)" x="-3.75" y="3.75" width="9" height="1.5" rx=".585"/><rect transform="rotate(90 15 15)" y="14.25" width="30" height="1.5" rx=".585"/></g><g transform="translate(1076 1)" fill="#F8426A" opacity=".3"><rect transform="rotate(90 22.125 9)" x="13.125" y="8.25" width="18" height="1.5" rx=".585"/><rect transform="rotate(90 7.875 9)" x="-1.125" y="8.25" width="18" height="1.5" rx=".585"/><rect transform="rotate(90 29.25 4.5)" x="24.75" y="3.75" width="9" height="1.5" rx=".585"/><rect transform="rotate(90 .75 4.5)" x="-3.75" y="3.75" width="9" height="1.5" rx=".585"/><rect transform="rotate(90 15 15)" y="14.25" width="30" height="1.5" rx=".585"/></g><g opacity=".6" stroke="#F8426A" stroke-linecap="round" stroke-linejoin="round" stroke-width="1.5"><path d="M1162.75 93.25L1177 79.721l14.25 13.529"/><path d="M1162.75 104.829L1177 91.3l14.25 13.529"/><path d="M1171.266 108.279l5.734-5.4 5.723 5.4"/></g><g opacity=".6" stroke="#F8426A" stroke-linecap="round" stroke-linejoin="round" stroke-width="1.5"><path d="M498.75 93.25L513 79.721l14.25 13.529"/><path d="M498.75 104.829L513 91.3l14.25 13.529"/><path d="M507.266 108.279l5.734-5.4 5.723 5.4"/></g><g opacity=".6" stroke="#F8426A" stroke-linecap="round" stroke-linejoin="round" stroke-width="1.5"><path d="M166.75 93.25L181 79.721l14.25 13.529"/><path d="M166.75 104.829L181 91.3l14.25 13.529"/><path d="M175.266 108.279l5.734-5.4 5.723 5.4"/></g><g opacity=".6" stroke="#F8426A" stroke-linecap="round" stroke-linejoin="round" stroke-width="1.5"><path d="M830.75 93.25L845 79.721l14.25 13.529"/><path d="M830.75 104.829L845 91.3l14.25 13.529"/><path d="M839.266 108.279l5.734-5.4 5.723 5.4"/></g><g transform="translate(0 79)" fill="#F8426A" opacity=".6"><rect transform="rotate(90 22.125 9)" x="13.125" y="8.25" width="18" height="1.5" rx=".585"/><rect transform="rotate(90 7.875 9)" x="-1.125" y="8.25" width="18" height="1.5" rx=".585"/><rect transform="rotate(90 29.25 4.5)" x="24.75" y="3.75" width="9" height="1.5" rx=".585"/><rect transform="rotate(90 .75 4.5)" x="-3.75" y="3.75" width="9" height="1.5" rx=".585"/><rect transform="rotate(90 15 15)" y="14.25" width="30" height="1.5" rx=".585"/></g><g transform="translate(664 79)" fill="#F8426A" opacity=".6"><rect transform="rotate(90 22.125 9)" x="13.125" y="8.25" width="18" height="1.5" rx=".585"/><rect transform="rotate(90 7.875 9)" x="-1.125" y="8.25" width="18" height="1.5" rx=".585"/><rect transform="rotate(90 29.25 4.5)" x="24.75" y="3.75" width="9" height="1.5" rx=".585"/><rect transform="rotate(90 .75 4.5)" x="-3.75" y="3.75" width="9" height="1.5" rx=".585"/><rect transform="rotate(90 15 15)" y="14.25" width="30" height="1.5" rx=".585"/></g><g transform="translate(332 79)" fill="#F8426A" opacity=".6"><rect transform="rotate(90 22.125 9)" x="13.125" y="8.25" width="18" height="1.5" rx=".585"/><rect transform="rotate(90 7.875 9)" x="-1.125" y="8.25" width="18" height="1.5" rx=".585"/><rect transform="rotate(90 29.25 4.5)" x="24.75" y="3.75" width="9" height="1.5" rx=".585"/><rect transform="rotate(90 .75 4.5)" x="-3.75" y="3.75" width="9" height="1.5" rx=".585"/><rect transform="rotate(90 15 15)" y="14.25" width="30" height="1.5" rx=".585"/></g><g transform="translate(996 79)" fill="#F8426A" opacity=".6"><rect transform="rotate(90 22.125 9)" x="13.125" y="8.25" width="18" height="1.5" rx=".585"/><rect transform="rotate(90 7.875 9)" x="-1.125" y="8.25" width="18" height="1.5" rx=".585"/><rect transform="rotate(90 29.25 4.5)" x="24.75" y="3.75" width="9" height="1.5" rx=".585"/><rect transform="rotate(90 .75 4.5)" x="-3.75" y="3.75" width="9" height="1.5" rx=".585"/><rect transform="rotate(90 15 15)" y="14.25" width="30" height="1.5" rx=".585"/></g></g></svg>